<?xml version="1.0" encoding="UTF-8" standalone="no"?>
<!-- Generator: Adobe Illustrator 24.3.0, SVG Export Plug-In . SVG Version: 6.00 Build 0)  -->

<svg
   version="1.1"
   id="Layer_1"
   x="0px"
   y="0px"
   viewBox="0 0 171.7 71.900002"
   xml:space="preserve"
   sodipodi:docname="EMSL_light.svg"
   width="171.7"
   height="71.900002"
   inkscape:version="1.1.2 (0a00cf5339, 2022-02-04)"
   xmlns:inkscape="http://www.inkscape.org/namespaces/inkscape"
   xmlns:sodipodi="http://sodipodi.sourceforge.net/DTD/sodipodi-0.dtd"
   xmlns="http://www.w3.org/2000/svg"
   xmlns:svg="http://www.w3.org/2000/svg"><defs
   id="defs28" /><sodipodi:namedview
   id="namedview26"
   pagecolor="#ffffff"
   bordercolor="#666666"
   borderopacity="1.0"
   inkscape:pageshadow="2"
   inkscape:pageopacity="0.0"
   inkscape:pagecheckerboard="0"
   showgrid="false"
   inkscape:zoom="6.547619"
   inkscape:cx="84.687273"
   inkscape:cy="35.890909"
   inkscape:window-width="1920"
   inkscape:window-height="1026"
   inkscape:window-x="0"
   inkscape:window-y="25"
   inkscape:window-maximized="1"
   inkscape:current-layer="Layer_1" />
<style
   type="text/css"
   id="style2">
	.st0{fill:#FFFFFF;}
	.st1{fill:#00B6F0;}
	.st2{fill:#11134A;}
</style>
<g
   id="EMSL_3_"
   transform="translate(-22.2,-27.1)">
	<g
   id="g22">
		<polygon
   class="st1"
   points="129.3,59.9 129.3,97.6 155.6,97.6 155.6,92.6 134.3,92.6 134.3,59.9 "
   id="polygon4" />
		<polygon
   class="st1"
   points="48.3,97.6 48.3,92.7 27.2,92.7 27.2,81.3 37.8,81.3 37.8,76.3 27.2,76.3 27.2,64.9 48.3,64.9 48.3,59.9 22.2,59.9 22.2,97.6 "
   id="polygon6" />
		<g
   id="g20">
			<path
   class="st1"
   d="m 111.8,76.5 c -6.2,-1.4 -12.3,-2.1 -12.3,-6.8 0,-5 4.3,-6.5 8.6,-6.5 4.6,0 8,1.8 9.2,6.1 h 5 c -1,-7.2 -6.7,-10.4 -13.9,-10.4 -7,0 -13.9,3.4 -13.9,11.2 0,7 6.2,8.8 12.3,10.1 6.1,1.3 12.2,2.3 12.2,7.5 0,5.5 -5.1,7 -9.7,7 -5.2,0 -10.1,-2.3 -11,-7.5 h -4.9 c 0.9,8.1 7.7,11.8 15.7,11.8 7,0 15,-3.3 15,-11.4 0,-7.5 -6.1,-9.7 -12.3,-11.1"
   id="path8" />
			<polygon
   class="st1"
   points="54,59.9 54,97.6 59.1,97.6 59.1,68.2 71.2,85.7 83.2,68.3 83.2,97.6 88.2,97.6 88.2,59.9 82.9,59.9 71.2,77 59.5,59.9 "
   id="polygon10" />
			<path
   class="st1"
   d="m 163.4,32.3 c 0.6,-0.5 1.5,-0.8 2.3,-0.8 1.1,0 2.1,0.5 2.8,1.3 0.5,0.6 0.8,1.4 0.8,2.2 0,0.1 0,0.3 0,0.4 -0.1,1 -0.6,1.9 -1.3,2.5 0,0 -0.6,0.6 -1.2,1 0.5,0.1 1,0.2 1.5,0.2 3.3,0 6,-2.7 6,-6 0,-3.3 -2.7,-6 -6,-6 -3.3,0 -6,2.7 -6,6 0,0 0,0.1 0,0.2 0.4,-0.5 1.1,-1 1.1,-1"
   id="path12" />
			<path
   class="st1"
   d="m 184.5,36.8 c -5.1,0 -9.3,4.2 -9.3,9.3 0,1 0.2,2 0.5,2.9 0.8,-0.8 2.6,-2.8 2.6,-2.8 0.7,-0.8 1.8,-1.3 3,-1.3 1.1,0 2.3,0.4 3.2,1.2 0.9,0.7 1.5,1.7 1.7,2.7 0.3,1.2 0,2.5 -0.7,3.4 0,0 -1.4,1.9 -2.2,3 0.4,0.1 0.9,0.2 1.3,0.2 5.1,0 9.3,-4.2 9.3,-9.3 -0.1,-5.1 -4.3,-9.3 -9.4,-9.3"
   id="path14" />
			<path
   class="st1"
   d="m 182.5,48.5 c -0.7,-0.6 -1.6,-0.7 -2,-0.2 l -6.2,6.6 -0.3,-0.2 c -0.6,-0.3 -1.2,-0.6 -1.8,-0.8 -1.3,-0.4 -2.7,-0.7 -4.1,-0.7 -1.4,0 -2.7,0.2 -4.1,0.7 -0.6,0.2 -1.3,0.5 -1.8,0.8 l -0.3,0.2 -6.1,-6.5 c -0.2,-0.2 -0.5,-0.3 -0.6,-0.3 -0.4,0 -1,0.1 -1.4,0.5 -0.7,0.6 -0.9,1.5 -0.6,1.9 0,0 5.3,7.3 5.3,7.3 l -0.2,0.3 c -0.4,0.5 -0.8,1.1 -1.1,1.7 -1,1.9 -1.6,4 -1.6,6.1 0,6.9 5.7,12.6 12.6,12.6 6.9,0 12.6,-5.7 12.6,-12.6 0,-2.1 -0.6,-4.3 -1.6,-6.1 -0.3,-0.6 -0.7,-1.1 -1.1,-1.7 l -0.2,-0.3 5.3,-7.2 c 0.3,-0.6 0,-1.5 -0.7,-2.1"
   id="path16" />
			<path
   class="st1"
   d="m 149.9,49.9 c 0,-1.3 0.6,-2.7 1.8,-3.7 l 0.1,-0.1 c 1,-0.7 2,-1.1 3.1,-1.1 1,0 1.9,0.3 2.6,0.9 0,0 0.4,0.4 0.4,0.4 0,0 1.7,1.8 2.6,2.7 0.3,-0.9 0.5,-1.9 0.5,-2.9 0,-1 -0.2,-2 -0.5,-2.9 -0.2,-0.6 -0.5,-1.2 -0.8,-1.8 l -0.1,-0.2 c 0.7,-0.6 6.2,-5.3 6.5,-5.6 0.4,-0.3 0.3,-0.8 0.2,-1 -0.1,-0.2 -0.3,-0.3 -0.6,-0.3 -0.3,0 -0.6,0.2 -0.9,0.5 -0.2,0.2 -5.9,4.3 -6.4,4.8 l -0.2,-0.2 c -0.5,-0.4 -1,-0.8 -1.6,-1.2 -1.5,-0.9 -3.1,-1.3 -4.8,-1.3 -5.1,0 -9.3,4.2 -9.3,9.3 0,5.1 4.2,9.3 9.3,9.3 0.4,0 0.8,-0.1 1.3,-0.2 -0.7,-0.9 -2.2,-3 -2.2,-3 -0.7,-0.7 -1,-1.5 -1,-2.4"
   id="path18" />
		</g>
	</g>
</g>
</svg>
